<?xml version="1.0" encoding="UTF-8"?>
<svg enable-background="new 0 0 2560 1600" version="1.1" viewBox="0 0 2560 1600" xml:space="preserve" xmlns="http://www.w3.org/2000/svg">
<pattern id="a" width="304" height="304" overflow="visible" patternUnits="userSpaceOnUse" viewBox="0 -304 304 304">
	
		<rect y="-304" width="304" height="304" fill="none"/>
		<path fill="#7e8696" d="m0-80v2h44.1c0.401 1.964 1.935 3.498 3.899 3.899 2.706 0.552 5.347-1.193 5.899-3.899s-1.193-5.347-3.899-5.899-5.347 1.193-5.899 3.899h-44.1zm82 48v2h122.1c0.401 1.964 1.935 3.498 3.899 3.899 2.706 0.552 5.347-1.193 5.899-3.899s-1.193-5.347-3.899-5.899-5.347 1.193-5.899 3.899h-122.1zm222-46v-2h-42.1c-0.401-1.964-1.935-3.498-3.899-3.899-2.706-0.552-5.347 1.193-5.899 3.899s1.193 5.347 3.899 5.899 5.347-1.193 5.899-3.899h42.1zm0 16v-2h-42.1c-0.401-1.964-1.935-3.498-3.899-3.899-2.706-0.552-5.347 1.193-5.899 3.899s1.193 5.347 3.899 5.899 5.347-1.193 5.899-3.899h42.1zm-122.1-114c-0.401-1.964-1.935-3.498-3.899-3.899-2.706-0.552-5.347 1.193-5.899 3.899s1.193 5.347 3.899 5.899 5.347-1.193 5.899-3.899h86.2c0.401 1.964 1.935 3.498 3.899 3.899 2.706 0.552 5.347-1.193 5.899-3.899s-1.193-5.347-3.899-5.899-5.347 1.193-5.899 3.899h-86.2zm-181.9-48v2h12.1c0.401 1.964 1.935 3.498 3.899 3.899 2.706 0.552 5.347-1.193 5.899-3.899s-1.193-5.347-3.899-5.899-5.347 1.193-5.899 3.899h-12.1zm284.1 34c0.401 1.964 1.935 3.498 3.899 3.899 2.706 0.552 5.347-1.193 5.899-3.899s-1.193-5.347-3.899-5.899-5.347 1.193-5.899 3.899h-86.2c-0.401-1.964-1.935-3.498-3.899-3.899-2.706-0.552-5.347 1.193-5.899 3.899s1.193 5.347 3.899 5.899 5.347-1.193 5.899-3.899h86.2zm-26.1-114h-2v12.1c-1.964 0.401-3.498 1.935-3.899 3.899-0.552 2.706 1.193 5.347 3.899 5.899s5.347-1.193 5.899-3.899-1.193-5.347-3.899-5.899v-12.1zm-64 165.9c1.964-0.401 3.498-1.935 3.899-3.899 0.552-2.706-1.193-5.347-3.899-5.899s-5.347 1.193-5.899 3.899 1.193 5.347 3.899 5.899v54.2c-1.964 0.401-3.498 1.935-3.899 3.899-0.552 2.706 1.193 5.347 3.899 5.899s5.347-1.193 5.899-3.899-1.193-5.347-3.899-5.899v-54.2zm51.899-147.9c0.552-2.706-1.193-5.347-3.899-5.899s-5.347 1.193-5.899 3.899 1.193 5.347 3.899 5.899v60.1h64v-2h-62v-58.1c1.964-0.401 3.498-1.935 3.899-3.899zm16 16c0.552-2.706-1.193-5.347-3.899-5.899s-5.347 1.193-5.899 3.899 1.193 5.347 3.899 5.899v28.1h48v-2h-46v-26.1c1.964-0.401 3.498-1.935 3.899-3.899zm-131.9 99.899c1.964-0.401 3.498-1.935 3.899-3.899 0.552-2.706-1.193-5.347-3.899-5.899s-5.347 1.193-5.899 3.899 1.193 5.347 3.899 5.899v76.1h16v10.1c-1.964 0.401-3.498 1.935-3.899 3.899-0.552 2.706 1.193 5.347 3.899 5.899s5.347-1.193 5.899-3.899-1.193-5.347-3.899-5.899v-12.1h-16v-74.1zm-18-21.9v48h-26.1c-0.401-1.964-1.935-3.498-3.899-3.899-2.706-0.552-5.347 1.193-5.899 3.899s1.193 5.347 3.899 5.899 5.347-1.193 5.899-3.899h28.1v-48h10.1c0.401 1.964 1.935 3.498 3.899 3.899 2.706 0.552 5.347-1.193 5.899-3.899s-1.193-5.347-3.899-5.899-5.347 1.193-5.899 3.899h-12.1zm66 130v-76.1c1.964-0.401 3.498-1.935 3.899-3.899 0.552-2.706-1.193-5.347-3.899-5.899s-5.347 1.193-5.899 3.899 1.193 5.347 3.899 5.899v74.1h-58.1c-0.401-1.964-1.935-3.498-3.899-3.899-2.706-0.552-5.347 1.193-5.899 3.899s1.193 5.347 3.899 5.899 5.347-1.193 5.899-3.899h60.1zm-66-64v48h12.1c0.401 1.964 1.935 3.498 3.899 3.899 2.706 0.552 5.347-1.193 5.899-3.899s-1.193-5.347-3.899-5.899-5.347 1.193-5.899 3.899h-10.1v-48h-12.1c-0.401-1.964-1.935-3.498-3.899-3.899-2.706-0.552-5.347 1.193-5.899 3.899s1.193 5.347 3.899 5.899 5.347-1.193 5.899-3.899h10.1zm-46 94h-18v32h2v-30h14v10.1c-1.964 0.401-3.498 1.935-3.899 3.899-0.552 2.706 1.193 5.347 3.899 5.899s5.347-1.193 5.899-3.899-1.193-5.347-3.899-5.899v-12.1zm158-96v98h48v30h2v-32h-48v-94h10.1c0.401 1.964 1.935 3.498 3.899 3.899 2.706 0.552 5.347-1.193 5.899-3.899s-1.193-5.347-3.899-5.899-5.347 1.193-5.899 3.899h-12.1zm48-30v42.1c-1.964 0.401-3.498 1.935-3.899 3.899-0.552 2.706 1.193 5.347 3.899 5.899s5.347-1.193 5.899-3.899-1.193-5.347-3.899-5.899v-44.1h-12.1c-0.401-1.964-1.935-3.498-3.899-3.899-2.706-0.552-5.347 1.193-5.899 3.899s1.193 5.347 3.899 5.899 5.347-1.193 5.899-3.899h10.1zm-62 96v-80h16v-18h-44.1c-0.401-1.964-1.935-3.498-3.899-3.899-2.706-0.552-5.347 1.193-5.899 3.899s1.193 5.347 3.899 5.899 5.347-1.193 5.899-3.899h42.1v14h-16v80h-10.1c-0.401-1.964-1.935-3.498-3.899-3.899-2.706-0.552-5.347 1.193-5.899 3.899s1.193 5.347 3.899 5.899 5.347-1.193 5.899-3.899h12.1zm74.1-210h-10.1v-32h-2v34h12.1c0.401 1.964 1.935 3.498 3.899 3.899 2.706 0.552 5.347-1.193 5.899-3.899s-1.193-5.347-3.899-5.899-5.347 1.193-5.899 3.899zm-182.2 66.001c0.552-2.706-1.193-5.347-3.899-5.899s-5.347 1.193-5.899 3.899 1.193 5.347 3.899 5.899v42.1h-42.1c-0.401-1.964-1.935-3.498-3.899-3.899-2.706-0.552-5.347 1.193-5.899 3.899s1.193 5.347 3.899 5.899 5.347-1.193 5.899-3.899h44.1v-44.1c1.964-0.401 3.498-1.935 3.899-3.899zm-19.899-64.001v-34h-2v32h-26.1c-0.401-1.964-1.935-3.498-3.899-3.899-2.706-0.552-5.347 1.193-5.899 3.899s1.193 5.347 3.899 5.899 5.347-1.193 5.899-3.899h28.1zm35.899 1e-3c0.552-2.706-1.193-5.347-3.899-5.899s-5.347 1.193-5.899 3.899 1.193 5.347 3.899 5.899v26.1h-32v64h-10.1c-0.401-1.964-1.935-3.498-3.899-3.899-2.706-0.552-5.347 1.193-5.899 3.899s1.193 5.347 3.899 5.899 5.347-1.193 5.899-3.899h12.1v-64h32v-28.1c1.964-0.401 3.498-1.935 3.899-3.899zm12.101 47.999v-44.1c1.964-0.401 3.498-1.935 3.899-3.899 0.552-2.706-1.193-5.347-3.899-5.899s-5.347 1.193-5.899 3.899 1.193 5.347 3.899 5.899v42.1h-26.1c-0.401-1.964-1.935-3.498-3.899-3.899-2.706-0.552-5.347 1.193-5.899 3.899s1.193 5.347 3.899 5.899 5.347-1.193 5.899-3.899h28.1zm14-64v42.1c-1.964 0.401-3.498 1.935-3.899 3.899-0.552 2.706 1.193 5.347 3.899 5.899s5.347-1.193 5.899-3.899-1.193-5.347-3.899-5.899v-44.1h-28.1c-0.401-1.964-1.935-3.498-3.899-3.899-2.706-0.552-5.347 1.193-5.899 3.899s1.193 5.347 3.899 5.899 5.347-1.193 5.899-3.899h26.1zm-48 270v16h2v-14h122.1c0.401 1.964 1.935 3.498 3.899 3.899 2.706 0.552 5.347-1.193 5.899-3.899s-1.193-5.347-3.899-5.899-5.347 1.193-5.899 3.899h-124.1zm149.9-142c0.552-2.706-1.193-5.347-3.899-5.899s-5.347 1.193-5.899 3.899 1.193 5.347 3.899 5.899v12.1h16v30h-16v66h48v46h2v-48h-48v-62h16v-34h-16v-10.1c1.964-0.401 3.498-1.935 3.899-3.899zm-179.9-128v-18h-18v2h16v14h-10.1c-0.401-1.964-1.935-3.498-3.899-3.899-2.706-0.552-5.347 1.193-5.899 3.899s1.193 5.347 3.899 5.899 5.347-1.193 5.899-3.899h12.1zm128 32v-48h48v-2h-50v48h-26.1c-0.401-1.964-1.935-3.498-3.899-3.899-2.706-0.552-5.347 1.193-5.899 3.899s1.193 5.347 3.899 5.899 5.347-1.193 5.899-3.899h28.1zm-18-48v30h-14v-10.1c1.964-0.401 3.498-1.935 3.899-3.899 0.552-2.706-1.193-5.347-3.899-5.899s-5.347 1.193-5.899 3.899 1.193 5.347 3.899 5.899v12.1h18v-34h-62.17c0.227 0.644 0.227 1.347 0 1.991-0.55 1.563-2.263 2.384-3.826 1.834s-2.384-2.263-1.834-3.826h-2.07c-0.552 2.706 1.194 5.348 3.9 5.9s5.348-1.194 5.9-3.9c0 1e-3 58.1 1e-3 58.1 1e-3zm-38.17 96 32-32h40.17v-44.1c1.964-0.401 3.498-1.935 3.899-3.899 0.552-2.706-1.193-5.347-3.899-5.899s-5.347 1.193-5.899 3.899 1.193 5.347 3.899 5.899v42.1h-39l-32 32h-19.1c-0.401-1.964-1.935-3.498-3.899-3.899-2.706-0.552-5.347 1.193-5.899 3.899s1.193 5.347 3.899 5.899 5.347-1.193 5.899-3.899h19.93zm8.17 14.41 30.41-30.41h49.59v-60.1c1.964-0.401 3.498-1.935 3.899-3.899 0.552-2.706-1.193-5.347-3.899-5.899s-5.347 1.193-5.899 3.899 1.193 5.347 3.899 5.899v58.1h-48.41l-31.59 31.59v76.51c-1.964 0.401-3.498 1.935-3.899 3.899-0.552 2.706 1.193 5.347 3.899 5.899s5.347-1.193 5.899-3.899-1.193-5.347-3.899-5.899v-75.69zm16 9 23.41-23.41h114.69c0.401 1.964 1.936 3.499 3.9 3.9v-2.07c-0.858-0.302-1.533-0.977-1.834-1.834-0.55-1.563 0.272-3.276 1.834-3.826v-2.07c-1.964 0.401-3.499 1.936-3.9 3.9h-115.51l-24.59 24.59v99.51c-1.964 0.401-3.498 1.935-3.899 3.899-0.552 2.706 1.193 5.347 3.899 5.899s5.347-1.193 5.899-3.899-1.193-5.347-3.899-5.899v-98.69zm-144 32 48-48v-55.41h32v-50h-2v48h-32v56.59l-48 48v3.51c-1.964 0.401-3.498 1.935-3.899 3.899-0.552 2.706 1.193 5.347 3.899 5.899s5.347-1.193 5.899-3.899-1.193-5.347-3.899-5.899v-2.69zm35.899-103.41c0.552-2.706-1.193-5.347-3.899-5.899s-5.347 1.193-5.899 3.899 1.193 5.347 3.899 5.899v42.69l-48 48v65.41h28.1c0.401 1.964 1.935 3.498 3.899 3.899 2.706 0.552 5.347-1.193 5.899-3.899s-1.193-5.347-3.899-5.899-5.347 1.193-5.899 3.899h-26.1v-62.59l48-48v-43.51c1.964-0.401 3.498-1.935 3.899-3.899zm-16 16c0.552-2.706-1.193-5.347-3.899-5.899s-5.347 1.193-5.899 3.899 1.193 5.347 3.899 5.899v18.69l-32 32v2.82l34-34v-19.51c1.964-0.401 3.498-1.935 3.899-3.899zm-29.309-34.001-8.59 8.6v2.81l9.41-9.41h2.69c0.401 1.964 1.935 3.498 3.899 3.899 2.706 0.552 5.347-1.193 5.899-3.899s-1.193-5.347-3.899-5.899-5.347 1.193-5.899 3.899h-3.51zm288.82 18 6.59-6.59v-2.82l-7.41 7.41h-18.69c-0.401-1.964-1.935-3.498-3.899-3.899-2.706-0.552-5.347 1.193-5.899 3.899s1.193 5.347 3.899 5.899 5.347-1.193 5.899-3.899h19.51zm-7.41 160v-72.59l14-14v-2.82l-16 16v71.41h-26.1c-0.401-1.964-1.935-3.498-3.899-3.899-2.706-0.552-5.347 1.193-5.899 3.899s1.193 5.347 3.899 5.899 5.347-1.193 5.899-3.899h28.1zm-224 32v-25.41l-24.59-24.59h-19.51c-0.401-1.964-1.935-3.498-3.899-3.899-2.706-0.552-5.347 1.193-5.899 3.899s1.193 5.347 3.899 5.899 5.347-1.193 5.899-3.899h18.69l23.41 23.41v22.59h-10.1c-0.401-1.964-1.935-3.498-3.899-3.899-2.706-0.552-5.347 1.193-5.899 3.899s1.193 5.347 3.899 5.899 5.347-1.193 5.899-3.899h12.1zm138.1 14h-106.1v-55.4l-40.6-40.6h-19.5c-0.401-1.964-1.935-3.498-3.899-3.899-2.706-0.552-5.347 1.193-5.899 3.899s1.193 5.347 3.899 5.899 5.347-1.193 5.899-3.899h18.7l39.4 39.4v56.6h108.1c0.401 1.964 1.935 3.498 3.899 3.899 2.706 0.552 5.347-1.193 5.899-3.899s-1.193-5.347-3.899-5.899-5.347 1.193-5.899 3.899zm-122.1 2v-49.41l-32.59-32.59h-27.51c-0.401-1.964-1.935-3.498-3.899-3.899-2.706-0.552-5.347 1.193-5.899 3.899s1.193 5.347 3.899 5.899 5.347-1.193 5.899-3.899h26.69l31.41 31.41v46.59h-26.1c-0.401-1.964-1.935-3.498-3.899-3.899-2.706-0.552-5.347 1.193-5.899 3.899s1.193 5.347 3.899 5.899 5.347-1.193 5.899-3.899h28.1zm-48-258h-2v40.59l-23.41 23.41h-8.59v2h9.41l24.59-24.59v-41.41zm-32 258h14v46h2v-48h-18v46.17c1e-3 0 2e-3 -1e-3 3e-3 -1e-3 1.562-0.551 3.276 0.269 3.827 1.831h2.07c-0.401-1.964-1.936-3.499-3.9-3.9v-42.1zm32-18h-34v2h32v62h2v-64zm-16-222v-18h-2v16h-16v2h18zm272-18h-2v18h16v-2h-14v-16zm-32 288h-18v16h2v-14h14v14h2v-16zm-258-193.83c0.644-0.227 1.347-0.227 1.991 0 1.563 0.55 2.384 2.263 1.834 3.826s-2.263 2.384-3.826 1.834v2.07c0.329 0.067 0.665 0.101 1.001 0.101 2.762-1e-3 5.001-2.24 5-5.001-1e-3 -0.321-0.034-0.642-0.097-0.957-0.541-2.719-3.184-4.484-5.903-3.943v2.07zm80 209.83h2v-32h-2v32zm33.995-3.905c-2.706-0.55-5.345 1.199-5.895 3.905h2.07c0.302-0.858 0.977-1.533 1.834-1.834 1.563-0.55 3.276 0.272 3.826 1.834h2.07c-0.4-1.968-1.937-3.505-3.905-3.905zm-110.16-300.1c0.23 0.649 0.23 1.356 0 2.005-0.554 1.562-2.268 2.379-3.83 1.825v2.07c0.644 0.128 1.307 0.128 1.951 0 2.72-0.539 4.487-3.18 3.949-5.9h-2.07zm296.27 2e-3c-0.552 2.706 1.195 5.346 3.9 5.898v-2.07c-1e-3 0-2e-3 -1e-3 -3e-3 -1e-3 -1.562-0.553-2.38-2.267-1.827-3.829h-2.07v2e-3zm0 304h2.07c0.302-0.855 0.975-1.528 1.83-1.83v-2.07c-1.964 0.401-3.499 1.936-3.9 3.9zm-206.1-207c0-1.657 1.343-3 3-3s3 1.343 3 3-1.343 3-3 3-3-1.343-3-3zm0-16c0-1.657 1.343-3 3-3s3 1.343 3 3-1.343 3-3 3-3-1.343-3-3zm16 16c0-1.657 1.343-3 3-3s3 1.343 3 3-1.343 3-3 3-3-1.343-3-3zm16 16c0-1.657 1.343-3 3-3s3 1.343 3 3-1.343 3-3 3-3-1.343-3-3zm0 16c0-1.657 1.343-3 3-3s3 1.343 3 3-1.343 3-3 3-3-1.343-3-3zm-48 32c0-1.657 1.343-3 3-3s3 1.343 3 3-1.343 3-3 3-3-1.343-3-3zm16 16c0-1.657 1.343-3 3-3s3 1.343 3 3-1.343 3-3 3-3-1.343-3-3zm32 48c0-1.657 1.343-3 3-3s3 1.343 3 3-1.343 3-3 3-3-1.343-3-3zm-16 16c0-1.657 1.343-3 3-3s3 1.343 3 3-1.343 3-3 3-3-1.343-3-3zm32-16c0-1.657 1.343-3 3-3s3 1.343 3 3-1.343 3-3 3-3-1.343-3-3zm0-32c0-1.657 1.343-3 3-3s3 1.343 3 3-1.343 3-3 3-3-1.343-3-3zm16 32c0-1.657 1.343-3 3-3s3 1.343 3 3-1.343 3-3 3-3-1.343-3-3zm32 16c0-1.657 1.343-3 3-3s3 1.343 3 3-1.343 3-3 3-3-1.343-3-3zm0-16c0-1.657 1.343-3 3-3s3 1.343 3 3-1.343 3-3 3-3-1.343-3-3zm-16-64c0-1.657 1.343-3 3-3s3 1.343 3 3-1.343 3-3 3-3-1.343-3-3zm16 0c0-1.657 1.343-3 3-3s3 1.343 3 3-1.343 3-3 3-3-1.343-3-3zm16 96c0-1.657 1.343-3 3-3s3 1.343 3 3-1.343 3-3 3-3-1.343-3-3zm0 16c0-1.657 1.343-3 3-3s3 1.343 3 3-1.343 3-3 3-3-1.343-3-3zm16 16c0-1.657 1.343-3 3-3s3 1.343 3 3-1.343 3-3 3-3-1.343-3-3zm16-144c0-1.657 1.343-3 3-3s3 1.343 3 3-1.343 3-3 3-3-1.343-3-3zm0 32c0-1.657 1.343-3 3-3s3 1.343 3 3-1.343 3-3 3-3-1.343-3-3zm16-32c0-1.657 1.343-3 3-3s3 1.343 3 3-1.343 3-3 3-3-1.343-3-3zm16-16c0-1.657 1.343-3 3-3s3 1.343 3 3-1.343 3-3 3-3-1.343-3-3zm-96 0c0-1.657 1.343-3 3-3s3 1.343 3 3-1.343 3-3 3-3-1.343-3-3zm0 16c0-1.657 1.343-3 3-3s3 1.343 3 3-1.343 3-3 3-3-1.343-3-3zm16-32c0-1.657 1.343-3 3-3s3 1.343 3 3-1.343 3-3 3-3-1.343-3-3zm96 0c0-1.657 1.343-3 3-3s3 1.343 3 3-1.343 3-3 3-3-1.343-3-3zm-16-64c0-1.657 1.343-3 3-3s3 1.343 3 3-1.343 3-3 3-3-1.343-3-3zm16-16c0-1.657 1.343-3 3-3s3 1.343 3 3-1.343 3-3 3-3-1.343-3-3zm-32 0c0-1.657 1.343-3 3-3s3 1.343 3 3-1.343 3-3 3-3-1.343-3-3zm0-16c0-1.657 1.343-3 3-3s3 1.343 3 3-1.343 3-3 3-3-1.343-3-3zm-16 0c0-1.657 1.343-3 3-3s3 1.343 3 3-1.343 3-3 3-3-1.343-3-3zm-16 0c0-1.657 1.343-3 3-3s3 1.343 3 3-1.343 3-3 3-3-1.343-3-3zm-16 0c0-1.657 1.343-3 3-3s3 1.343 3 3-1.343 3-3 3-3-1.343-3-3zm-160 16c0-1.657 1.343-3 3-3s3 1.343 3 3-1.343 3-3 3-3-1.343-3-3zm-32 0c0-1.657 1.343-3 3-3s3 1.343 3 3-1.343 3-3 3-3-1.343-3-3zm32 16c0-1.657 1.343-3 3-3s3 1.343 3 3-1.343 3-3 3-3-1.343-3-3zm-16 16c0-1.657 1.343-3 3-3s3 1.343 3 3-1.343 3-3 3-3-1.343-3-3zm16-48c0-1.657 1.343-3 3-3s3 1.343 3 3-1.343 3-3 3-3-1.343-3-3zm0 240c0-1.657 1.343-3 3-3s3 1.343 3 3-1.343 3-3 3-3-1.343-3-3zm16 32c0-1.657 1.343-3 3-3s3 1.343 3 3-1.343 3-3 3-3-1.343-3-3zm-16-64c0-1.657 1.343-3 3-3s3 1.343 3 3-1.343 3-3 3-3-1.343-3-3zm0 16c0-1.657 1.343-3 3-3s3 1.343 3 3-1.343 3-3 3-3-1.343-3-3zm-16-32c0-1.657 1.343-3 3-3s3 1.343 3 3-1.343 3-3 3-3-1.343-3-3zm80-176c0-1.657 1.343-3 3-3s3 1.343 3 3-1.343 3-3 3-3-1.343-3-3zm16 0c0-1.657 1.343-3 3-3s3 1.343 3 3-1.343 3-3 3-3-1.343-3-3zm-16-16c0-1.657 1.343-3 3-3s3 1.343 3 3-1.343 3-3 3-3-1.343-3-3zm32 48c0-1.657 1.343-3 3-3s3 1.343 3 3-1.343 3-3 3-3-1.343-3-3zm16-16c0-1.657 1.343-3 3-3s3 1.343 3 3-1.343 3-3 3-3-1.343-3-3zm0-32c0-1.657 1.343-3 3-3s3 1.343 3 3-1.343 3-3 3-3-1.343-3-3zm112 176c0-1.657 1.343-3 3-3s3 1.343 3 3-1.343 3-3 3-3-1.343-3-3zm-16 16c0-1.657 1.343-3 3-3s3 1.343 3 3-1.343 3-3 3-3-1.343-3-3zm0 16c0-1.657 1.343-3 3-3s3 1.343 3 3-1.343 3-3 3-3-1.343-3-3zm0 16c0-1.657 1.343-3 3-3s3 1.343 3 3-1.343 3-3 3-3-1.343-3-3zm-240-64c0-1.657 1.343-3 3-3s3 1.343 3 3-1.343 3-3 3-3-1.343-3-3zm0 16c0-1.657 1.343-3 3-3s3 1.343 3 3-1.343 3-3 3-3-1.343-3-3zm0-32c0-1.657 1.343-3 3-3s3 1.343 3 3-1.343 3-3 3-3-1.343-3-3zm16 0c0-1.657 1.343-3 3-3s3 1.343 3 3-1.343 3-3 3-3-1.343-3-3zm-16-80c0-1.657 1.343-3 3-3s3 1.343 3 3-1.343 3-3 3-3-1.343-3-3zm32 64c0-1.657 1.343-3 3-3s3 1.343 3 3-1.343 3-3 3-3-1.343-3-3zm16-16c0-1.657 1.343-3 3-3s3 1.343 3 3-1.343 3-3 3-3-1.343-3-3z"/>
	
</pattern>
<rect width="2560" height="1600" fill="url(#a)"/>
</svg>
